<?xml version="1.0" encoding="UTF-8" standalone="no"?>
<!-- Generator: Gravit.io -->

<svg
   xmlns:dc="http://purl.org/dc/elements/1.1/"
   xmlns:cc="http://creativecommons.org/ns#"
   xmlns:rdf="http://www.w3.org/1999/02/22-rdf-syntax-ns#"
   xmlns:svg="http://www.w3.org/2000/svg"
   xmlns="http://www.w3.org/2000/svg"
   xmlns:sodipodi="http://sodipodi.sourceforge.net/DTD/sodipodi-0.dtd"
   xmlns:inkscape="http://www.inkscape.org/namespaces/inkscape"
   style="isolation:isolate"
   viewBox="0 0 375 63"
   width="375"
   height="63"
   id="svg2"
   version="1.1"
   inkscape:version="0.91 r13725"
   sodipodi:docname="logo-universaliste.svg">
  <metadata
     id="metadata104">
    <rdf:RDF>
      <cc:Work
         rdf:about="">
        <dc:format>image/svg+xml</dc:format>
        <dc:type
           rdf:resource="http://purl.org/dc/dcmitype/StillImage" />
        <dc:title></dc:title>
      </cc:Work>
    </rdf:RDF>
  </metadata>
  <sodipodi:namedview
     pagecolor="#ffffff"
     bordercolor="#666666"
     borderopacity="1"
     objecttolerance="10"
     gridtolerance="10"
     guidetolerance="10"
     inkscape:pageopacity="0"
     inkscape:pageshadow="2"
     inkscape:window-width="1845"
     inkscape:window-height="635"
     id="namedview102"
     showgrid="false"
     inkscape:zoom="2.436444"
     inkscape:cx="183.59957"
     inkscape:cy="-0.47288202"
     inkscape:window-x="1985"
     inkscape:window-y="215"
     inkscape:window-maximized="0"
     inkscape:current-layer="svg2" />
  <defs
     id="defs4">
    <clipPath
       id="_clipPath_5K6ecBEd1fiJVWDU2nkwLHALT3J2ptjv">
      <rect
         width="368"
         height="56"
         id="rect7"
         x="0"
         y="0" />
    </clipPath>
  </defs>
  <g
     clip-path="url(#_clipPath_5K6ecBEd1fiJVWDU2nkwLHALT3J2ptjv)"
     id="g9"
     transform="translate(3.5188952,3.492)">
    <path
       d="m 66.115,56 -0.745,0 0,-6.153 0.745,0 0,0.517 c 0.278,-0.448 0.788,-0.699 1.312,-0.646 1.273,0 1.839,0.795 1.839,2.266 0,1.312 -0.457,2.386 -1.988,2.386 -0.201,0.001 -0.402,-0.026 -0.596,-0.08 l 0,-0.646 c 0.169,0.06 0.348,0.087 0.527,0.08 0.994,0 1.242,-0.477 1.242,-1.7 0,-0.994 -0.209,-1.66 -1.173,-1.66 -0.964,0 -1.193,0.607 -1.193,1.74 L 66.115,56 Z"
       id="path11"
       inkscape:connector-curvature="0"
       style="fill:#595957" />
    <path
       d="m 73.809,51.14 c 0,-0.517 -0.15,-0.786 -0.994,-0.786 -0.845,0 -0.994,0.289 -1.074,0.805 l -0.745,0 c 0.079,-1.093 0.656,-1.431 1.858,-1.431 0.994,0 1.72,0.229 1.72,1.233 l 0,3.31 -0.746,0 0,-0.488 c -0.405,0.416 -0.971,0.634 -1.55,0.597 -0.994,0 -1.441,-0.378 -1.441,-1.193 -0.019,-0.373 0.116,-0.737 0.373,-1.008 0.257,-0.271 0.615,-0.424 0.988,-0.423 l 0.994,-0.139 0,0.606 -0.666,0.089 c -0.685,0.09 -0.994,0.269 -0.994,0.776 0,0.507 0.289,0.666 0.855,0.666 0.845,0 1.362,-0.318 1.362,-1.143 l 0.06,-1.471 z"
       id="path13"
       inkscape:connector-curvature="0"
       style="fill:#595957" />
    <path
       d="m 77.307,50.364 c 0.212,-0.425 0.66,-0.68 1.133,-0.646 0.109,-0.017 0.22,-0.017 0.328,0 l 0,0.785 c -0.132,-0.037 -0.269,-0.054 -0.407,-0.049 -0.726,0 -0.994,0.407 -0.994,1.262 l 0,2.485 -0.746,0 0,-4.354 0.696,0 -0.01,0.517 z"
       id="path15"
       inkscape:connector-curvature="0"
       style="fill:#595957" />
    <path
       d="m 84.394,54.271 -0.815,0 0,-6.094 2.416,0 c 1.332,0 2.445,0.15 2.445,1.67 0,1.243 -0.567,1.64 -1.491,1.75 l 1.859,2.664 -0.994,0 -1.819,-2.605 -0.994,0 0,-0.715 1.282,0 c 0.914,0 1.312,-0.149 1.312,-1.074 0,-0.924 -0.477,-0.994 -1.292,-0.994 l -1.889,0 -0.02,5.398 z"
       id="path17"
       inkscape:connector-curvature="0"
       style="fill:#595957" />
    <path
       d="m 91.392,53.555 3.697,0 0,0.716 -4.512,0 0,-6.094 4.423,0 0,0.716 -3.608,0 0,4.662 z m 0.596,-2.773 2.753,0 0,0.715 -2.783,0 0.03,-0.715 z"
       id="path19"
       inkscape:connector-curvature="0"
       style="fill:#595957" />
    <path
       d="m 97.038,54.271 0,-6.094 0.944,0 3.051,4.831 0,-4.831 0.865,0 0,6.084 -0.994,0 -3.081,-4.821 0,4.821 -0.785,0.01 z"
       id="path21"
       inkscape:connector-curvature="0"
       style="fill:#595957" />
    <path
       d="m 107.236,51.756 c -0.318,-0.925 -0.676,-1.839 -1.064,-2.763 -0.768,1.703 -1.399,3.464 -1.888,5.268 l -0.845,0 c 0.647,-2.072 1.417,-4.104 2.306,-6.084 l 0.904,0 c 0.88,1.983 1.646,4.014 2.296,6.084 l -0.904,0 c -0.179,-0.597 -0.368,-1.193 -0.567,-1.8 l -2.067,0 0.218,-0.715 1.611,0.01 z"
       id="path23"
       inkscape:connector-curvature="0"
       style="fill:#595957" />
    <path
       d="m 109.164,48.177 4.91,0 0,0.736 -4.91,0 0,-0.736 z m 2.047,6.084 0,-4.762 0.816,0 0,4.762 -0.816,0 z"
       id="path25"
       inkscape:connector-curvature="0"
       style="fill:#595957" />
    <path
       d="m 116.589,53.555 3.697,0 0,0.716 -4.472,0 0,-6.094 4.423,0 0,0.716 -3.608,0 -0.04,4.662 z m 0.596,-2.773 2.754,0 0,0.715 -2.754,0 0,-0.715 z"
       id="path27"
       inkscape:connector-curvature="0"
       style="fill:#595957" />
    <path
       d="m 123.099,54.271 -0.815,0 0,-6.094 2.396,0 c 1.332,0 2.445,0.15 2.445,1.67 0,1.243 -0.567,1.64 -1.491,1.75 l 1.859,2.664 -0.994,0 -1.809,-2.615 -0.994,0 0,-0.715 1.282,0 c 0.914,0 1.312,-0.149 1.312,-1.074 0,-0.924 -0.477,-0.994 -1.292,-0.994 l -1.889,0 -0.01,5.408 z"
       id="path29"
       inkscape:connector-curvature="0"
       style="fill:#595957" />
    <path
       d="m 65.728,33.328 0,-25.585 0.805,0 0,25.634 c 0,6.083 6.133,9.095 11.51,9.095 5.377,0 11.51,-2.982 11.51,-9.144 l 0,-25.585 0.805,0 0,25.634 c 0,6.481 -6.53,9.94 -12.315,9.94 -5.785,0 -12.315,-3.459 -12.315,-9.989 z"
       id="path31"
       inkscape:connector-curvature="0"
       style="fill:#1e1f1d" />
    <path
       d="M 78.043,43.635 C 71.9,43.635 65.38,40.027 65.38,33.328 l 0,-25.943 1.511,0 0,25.992 c 0,5.676 5.745,8.747 11.152,8.747 5.407,0 11.152,-3.081 11.152,-8.796 l 0,-25.943 1.511,0 0,25.992 c 0,6.66 -6.53,10.258 -12.663,10.258 z M 66.115,8.101 l 0,25.227 c 0,6.232 6.163,9.601 11.928,9.601 5.765,0 11.927,-3.349 11.927,-9.552 l 0,-25.276 -0.099,0 0,25.227 c 0,6.172 -6.113,9.502 -11.868,9.502 -5.755,0 -11.868,-3.31 -11.868,-9.453 l 0,-25.276 -0.02,0 z"
       id="path33"
       inkscape:connector-curvature="0"
       style="fill:#1e1f1d" />
    <path
       d="m 99.503,42.88 0,-24.849 0.497,0 16.46,23.785 0,-23.716 0.526,0 0,24.78 -0.566,0 -16.351,-23.647 0,23.647 -0.566,0 z"
       id="path35"
       inkscape:connector-curvature="0"
       style="fill:#1e1f1d" />
    <path
       d="m 117.344,43.228 -1.113,0 -15.814,-22.862 0,22.862 -1.272,0 0,-25.545 1.043,0.069 15.914,23.001 0,-23.011 1.242,0 0,25.486 0,0 z"
       id="path37"
       inkscape:connector-curvature="0"
       style="fill:#1e1f1d" />
    <path
       d="m 134.122,18.627 -5.278,0 0,23.716 5.278,0 0,0.527 -11.082,0 0,-0.527 5.278,0 0,-23.716 -5.278,0 0,-0.497 11.082,0 0,0.497 z"
       id="path39"
       inkscape:connector-curvature="0"
       style="fill:#1e1f1d" />
    <path
       d="m 134.47,43.228 -11.788,0 0,-1.243 5.278,0 0,-23 -5.278,0 0,-1.203 11.788,0 0,1.203 -5.278,0 0,23 5.278,0 0,1.243 0,0 z"
       id="path41"
       inkscape:connector-curvature="0"
       style="fill:#1e1f1d" />
    <path
       d="m 158.554,18.13 0.606,0 -9.939,25.127 -0.607,0 -9.939,-25.127 0.606,0 9.632,24.422 9.641,-24.422 z"
       id="path43"
       inkscape:connector-curvature="0"
       style="fill:#1e1f1d" />
    <path
       d="m 149.469,43.615 -1.083,0 -10.228,-25.833 1.362,0 0.089,0.219 9.304,23.587 9.422,-23.806 1.362,0 -10.228,25.833 0,0 z"
       id="path45"
       inkscape:connector-curvature="0"
       style="fill:#1e1f1d" />
    <path
       d="m 165.124,42.343 13.17,0 0,0.527 -13.776,0 0,-24.74 13.667,0 0,0.527 -13.061,0 0,11.55 12.812,0 0,0.566 -12.812,0 0,11.57 z"
       id="path47"
       inkscape:connector-curvature="0"
       style="fill:#1e1f1d" />
    <path
       d="m 178.642,43.228 -14.373,0 -0.069,-0.358 0,-25.088 14.373,0 0,1.233 -13.101,0 0,10.834 12.812,0 0,1.272 -12.812,0 0,10.864 13.17,0 0,1.243 0,0 z"
       id="path49"
       inkscape:connector-curvature="0"
       style="fill:#1e1f1d" />
    <path
       d="m 184.944,42.88 -0.547,0 0,-24.78 8.568,0 c 9.94,0 9.94,14.482 0,14.482 l -3.976,0 11.401,10.298 -0.815,0 -11.411,-10.308 0,-0.527 4.811,0 c 9.204,0 9.204,-13.378 0,-13.378 l -8.031,0 0,24.213 z"
       id="path51"
       inkscape:connector-curvature="0"
       style="fill:#1e1f1d" />
    <path
       d="m 201.295,43.228 -1.869,0 -11.61,-10.497 0,-0.994 5.169,0 c 1.729,0.107 3.424,-0.518 4.67,-1.722 1.246,-1.205 1.928,-2.877 1.88,-4.609 0.048,-1.732 -0.634,-3.405 -1.88,-4.609 -1.246,-1.204 -2.941,-1.83 -4.67,-1.723 l -7.683,0 0,24.154 -1.243,0 0,-25.486 8.946,0 c 2.713,0 5.22,1.448 6.576,3.797 1.357,2.35 1.357,5.245 0,7.594 -1.356,2.35 -3.863,3.797 -6.576,3.797 l -3.081,0 11.371,10.298 z"
       id="path53"
       inkscape:connector-curvature="0"
       style="fill:#1e1f1d" />
    <path
       d="m 221.512,23.299 c -0.19,-1 -0.651,-1.928 -1.332,-2.684 -3.697,-3.228 -9.279,-2.978 -12.673,0.566 -0.846,1.071 -1.238,2.431 -1.094,3.787 0.637,8.668 14.512,1.879 16.212,9.801 1.133,5.238 -3.827,8.349 -8.528,8.349 -3.608,0 -7.952,-2.047 -8.429,-6.053 l 0,-0.249 0.567,-0.069 0,0.248 c 0.387,3.718 4.532,5.596 7.892,5.596 4.313,0 8.945,-2.793 7.951,-7.713 -1.59,-7.365 -15.575,-0.636 -16.211,-9.88 -0.154,-1.481 0.266,-2.964 1.173,-4.145 3.608,-4.671 13.806,-4.075 15.009,2.336 l 0,0.288 -0.527,0.11 -0.01,-0.288 z"
       id="path55"
       inkscape:connector-curvature="0"
       style="fill:#1e1f1d" />
    <path
       d="m 214.077,43.476 c -3.976,0 -8.339,-2.236 -8.777,-6.371 l -0.089,-0.597 1.272,-0.159 0.08,0.597 c 0.357,3.439 4.154,5.288 7.544,5.288 2.503,0.072 4.914,-0.951 6.6,-2.803 1.012,-1.269 1.38,-2.936 0.994,-4.513 -0.696,-3.201 -3.976,-3.539 -7.465,-3.886 -3.976,-0.398 -8.389,-0.845 -8.747,-6.044 -0.164,-1.566 0.281,-3.136 1.243,-4.383 1.987,-2.594 6.202,-3.807 9.939,-2.902 3.091,0.745 5.149,2.703 5.646,5.387 l 0.079,0.636 -1.222,0.248 -0.08,-0.646 c -0.182,-0.938 -0.619,-1.808 -1.262,-2.514 -1.604,-1.512 -3.764,-2.289 -5.964,-2.147 -1.988,0 -4.721,0.755 -6.202,2.693 -0.784,1.007 -1.141,2.281 -0.994,3.549 0.308,4.155 3.886,4.512 7.683,4.89 3.797,0.378 7.644,0.755 8.519,4.871 0.471,1.927 0.015,3.964 -1.233,5.506 -1.924,2.144 -4.684,3.348 -7.564,3.3 z"
       id="path57"
       inkscape:connector-curvature="0"
       style="fill:#1e1f1d" />
    <path
       d="m 244.085,34.56 -12.524,0 -3.36,8.32 -0.606,0 9.94,-25.128 0.606,0 9.939,25.128 -0.606,0 -3.389,-8.32 z m -12.286,-0.527 12.067,0 -6.053,-15.535 -6.014,15.535 z"
       id="path59"
       inkscape:connector-curvature="0"
       style="fill:#1e1f1d" />
    <path
       d="m 248.607,43.228 -1.361,0 -3.4,-8.32 -12.047,0 -3.359,8.32 -1.362,0 10.228,-25.844 1.083,0 10.218,25.844 z m -16.291,-9.562 11.033,0 -5.536,-14.204 -5.497,14.204 z"
       id="path61"
       inkscape:connector-curvature="0"
       style="fill:#1e1f1d" />
    <path
       d="m 254.034,42.313 13.31,0 0,0.567 -13.916,0 0,-24.75 0.567,0 0.039,24.183 z"
       id="path63"
       inkscape:connector-curvature="0"
       style="fill:#1e1f1d" />
    <path
       d="m 267.691,43.228 -14.581,0 0,-25.446 1.272,0 0,24.173 13.309,0 0,1.273 0,0 z"
       id="path65"
       inkscape:connector-curvature="0"
       style="fill:#1e1f1d" />
    <path
       d="m 283.376,18.627 -5.278,0 0,23.716 5.278,0 0,0.527 -11.083,0 0,-0.527 5.278,0 0,-23.716 -5.278,0 0,-0.497 11.083,0 0,0.497 z"
       id="path67"
       inkscape:connector-curvature="0"
       style="fill:#1e1f1d" />
    <path
       d="m 283.724,43.228 -11.788,0 0,-1.243 5.278,0 0,-23 -5.278,0 0,-1.203 11.788,0 0,1.203 -5.268,0 0,23 5.268,0 0,1.243 0,0 z"
       id="path69"
       inkscape:connector-curvature="0"
       style="fill:#1e1f1d" />
    <path
       d="m 304.577,23.299 c -0.191,-1.005 -0.655,-1.937 -1.341,-2.694 -3.698,-3.228 -9.279,-2.978 -12.673,0.566 -0.846,1.071 -1.238,2.431 -1.094,3.787 0.636,8.668 14.512,1.879 16.212,9.801 1.133,5.238 -3.827,8.349 -8.528,8.349 -3.609,0 -7.952,-2.047 -8.429,-6.053 l 0,-0.248 0.566,-0.07 0,0.248 c 0.388,3.718 4.533,5.596 7.892,5.596 4.314,0 8.946,-2.793 7.952,-7.713 -1.59,-7.365 -15.575,-0.636 -16.211,-9.88 -0.155,-1.481 0.265,-2.964 1.172,-4.145 3.608,-4.671 13.807,-4.075 15.009,2.336 l 0,0.289 -0.527,0.109 0,-0.278 z"
       id="path71"
       inkscape:connector-curvature="0"
       style="fill:#1e1f1d" />
    <path
       d="m 297.143,43.476 c -3.976,0 -8.34,-2.236 -8.777,-6.371 l -0.09,-0.597 1.273,-0.159 0.079,0.597 c 0.358,3.439 4.155,5.288 7.544,5.288 2.504,0.072 4.914,-0.951 6.6,-2.803 1.013,-1.269 1.38,-2.936 0.994,-4.513 -0.695,-3.201 -3.976,-3.539 -7.464,-3.886 -3.976,-0.398 -8.389,-0.845 -8.747,-6.044 -0.164,-1.566 0.281,-3.136 1.242,-4.383 1.988,-2.594 6.203,-3.807 9.94,-2.902 3.091,0.745 5.149,2.703 5.646,5.387 l 0.079,0.636 -1.222,0.248 -0.08,-0.646 c -0.183,-0.938 -0.619,-1.808 -1.262,-2.514 -1.605,-1.512 -3.765,-2.289 -5.964,-2.147 -1.988,0 -4.721,0.755 -6.202,2.693 -0.785,1.007 -1.142,2.281 -0.994,3.549 0.308,4.155 3.886,4.512 7.683,4.89 3.797,0.378 7.644,0.755 8.518,4.871 0.472,1.927 0.016,3.964 -1.232,5.506 -1.924,2.144 -4.684,3.348 -7.564,3.3 z"
       id="path73"
       inkscape:connector-curvature="0"
       style="fill:#1e1f1d" />
    <path
       d="m 315.69,42.88 0,-24.213 -8.568,0 0,-0.567 17.663,0 0,0.567 -8.568,0 0,24.213 -0.527,0 z"
       id="path75"
       inkscape:connector-curvature="0"
       style="fill:#1e1f1d" />
    <path
       d="m 316.575,43.228 -1.243,0 0,-24.213 -8.568,0 0,-1.273 18.369,0 0,1.273 -8.558,0 0,24.213 0,0 z"
       id="path77"
       inkscape:connector-curvature="0"
       style="fill:#1e1f1d" />
    <path
       d="m 331.017,42.343 13.17,0 0,0.527 -13.737,0 0,-24.74 13.667,0 0,0.527 -13.1,0 0,11.55 12.812,0 0,0.566 -12.812,0 0,11.57 z"
       id="path79"
       inkscape:connector-curvature="0"
       style="fill:#1e1f1d" />
    <path
       d="m 344.535,43.228 -14.373,0 -0.069,-0.358 0,-25.088 14.372,0 0,1.233 -13.1,0 0,10.834 12.812,0 0,1.272 -12.812,0 0,10.864 13.17,0 0,1.243 0,0 z"
       id="path81"
       inkscape:connector-curvature="0"
       style="fill:#1e1f1d" />
    <path
       d="m 365.488,23.299 c -0.191,-1.005 -0.656,-1.937 -1.342,-2.694 -3.697,-3.228 -9.279,-2.978 -12.673,0.566 -0.846,1.071 -1.238,2.431 -1.094,3.787 0.637,8.668 14.512,1.879 16.212,9.801 1.133,5.238 -3.827,8.349 -8.528,8.349 -3.608,0 -7.952,-2.047 -8.429,-6.053 l 0,-0.248 0.566,-0.07 0,0.248 c 0.388,3.718 4.533,5.596 7.893,5.596 4.313,0 8.945,-2.793 7.951,-7.713 -1.59,-7.365 -15.575,-0.636 -16.211,-9.88 -0.154,-1.481 0.265,-2.964 1.173,-4.145 3.608,-4.671 13.806,-4.075 15.008,2.336 l 0,0.289 -0.526,0.109 0,-0.278 z"
       id="path83"
       inkscape:connector-curvature="0"
       style="fill:#1e1f1d" />
    <path
       d="m 358.053,43.476 c -3.976,0 -8.34,-2.236 -8.777,-6.371 l -0.089,-0.597 1.272,-0.159 0.079,0.597 c 0.358,3.439 4.155,5.288 7.545,5.288 2.507,0.075 4.921,-0.949 6.609,-2.803 1.013,-1.269 1.38,-2.936 0.994,-4.513 -0.695,-3.201 -3.975,-3.539 -7.464,-3.886 -3.976,-0.398 -8.389,-0.845 -8.747,-6.044 -0.164,-1.566 0.281,-3.136 1.242,-4.383 1.988,-2.594 6.203,-3.807 9.94,-2.902 3.091,0.745 5.149,2.703 5.646,5.387 l 0.079,0.636 -1.222,0.248 -0.08,-0.646 c -0.182,-0.938 -0.619,-1.808 -1.262,-2.514 -1.605,-1.512 -3.764,-2.289 -5.964,-2.147 -1.988,0 -4.721,0.755 -6.202,2.693 -0.785,1.007 -1.142,2.281 -0.994,3.549 0.308,4.155 3.886,4.512 7.683,4.89 3.797,0.378 7.644,0.755 8.518,4.871 0.472,1.927 0.016,3.964 -1.232,5.506 -1.926,2.147 -4.69,3.351 -7.574,3.3 z"
       id="path85"
       inkscape:connector-curvature="0"
       style="fill:#1e1f1d" />
    <linearGradient
       id="_lgradient_0"
       x1="23.779268"
       y1="45.847363"
       x2="23.779268"
       y2="-0.00031691644"
       gradientTransform="scale(1.0456956,0.95630127)"
       gradientUnits="userSpaceOnUse">
      <stop
         offset="0%"
         stop-opacity="1"
         style="stop-color:rgb(209,214,224)"
         id="stop88" />
      <stop
         offset="11%"
         stop-opacity="1"
         style="stop-color:rgb(192,197,218)"
         id="stop90" />
      <stop
         offset="30%"
         stop-opacity="1"
         style="stop-color:rgb(168,174,210)"
         id="stop92" />
      <stop
         offset="50%"
         stop-opacity="1"
         style="stop-color:rgb(151,158,204)"
         id="stop94" />
      <stop
         offset="72%"
         stop-opacity="1"
         style="stop-color:rgb(141,148,200)"
         id="stop96" />
      <stop
         offset="100%"
         stop-opacity="1"
         style="stop-color:rgb(138,145,199)"
         id="stop98" />
    </linearGradient>
    <path
       d="m 38.712,23.597 c -1.012,0.005 -2.017,0.162 -2.982,0.467 l -3.807,-6.113 c 3.3,-2.713 4.541,-7.207 3.099,-11.229 C 33.581,2.7 29.769,0.016 25.497,0.016 c -4.273,0 -8.085,2.684 -9.526,6.706 -1.441,4.022 -0.2,8.516 3.1,11.229 l -3.976,6.53 c -3.98,-1.741 -8.628,-0.747 -11.548,2.47 -2.92,3.217 -3.46,7.939 -1.343,11.732 2.117,3.794 6.42,5.812 10.691,5.016 4.271,-0.797 7.556,-4.231 8.164,-8.533 l 7.683,0 c 0.775,5.35 5.618,9.146 10.998,8.62 5.38,-0.526 9.397,-5.187 9.122,-10.586 -0.275,-5.398 -4.745,-9.627 -10.15,-9.603 l 0,0 z M 18.236,10.119 c 0,-4.024 3.262,-7.286 7.286,-7.286 4.024,0 7.286,3.262 7.286,7.286 0,4.023 -3.262,7.285 -7.286,7.285 C 21.5,17.399 18.241,14.14 18.236,10.119 Z m 3.25,9.273 c 2.559,1.111 5.463,1.111 8.022,0 l 3.608,5.875 c -2.403,1.6 -4.008,4.149 -4.414,7.007 l -7.673,0 c -0.351,-2.493 -1.62,-4.765 -3.558,-6.371 l 4.015,-6.511 z M 11.02,41.011 c -4.024,0 -7.286,-3.262 -7.286,-7.286 0,-4.024 3.262,-7.286 7.286,-7.286 4.024,0 7.286,3.262 7.286,7.286 -0.006,4.022 -3.265,7.281 -7.286,7.286 l 0,0 z m 27.702,0 c -4.024,0 -7.286,-3.262 -7.286,-7.286 0,-4.024 3.262,-7.286 7.286,-7.286 4.023,0 7.285,3.262 7.285,7.286 -0.005,4.026 -3.27,7.286 -7.295,7.286 l 0.01,0 z"
       id="path100"
       inkscape:connector-curvature="0"
       style="fill:url(#_lgradient_0)" />
  </g>
</svg>
