<?xml version="1.0" encoding="UTF-8" standalone="no"?>
<!-- Created with Inkscape (http://www.inkscape.org/) -->

<svg
   xmlns:dc="http://purl.org/dc/elements/1.1/"
   xmlns:cc="http://creativecommons.org/ns#"
   xmlns:rdf="http://www.w3.org/1999/02/22-rdf-syntax-ns#"
   xmlns:svg="http://www.w3.org/2000/svg"
   xmlns="http://www.w3.org/2000/svg"
   xmlns:sodipodi="http://sodipodi.sourceforge.net/DTD/sodipodi-0.dtd"
   xmlns:inkscape="http://www.inkscape.org/namespaces/inkscape"
   id="svg17012"
   version="1.1"
   inkscape:version="0.91 r13725"
   width="33.092731"
   height="27"
   viewBox="0 0 33.09273 26.999999"
   sodipodi:docname="create_list.svg">
  <metadata
     id="metadata17018">
    <rdf:RDF>
      <cc:Work
         rdf:about="">
        <dc:format>image/svg+xml</dc:format>
        <dc:type
           rdf:resource="http://purl.org/dc/dcmitype/StillImage" />
        <dc:title></dc:title>
      </cc:Work>
    </rdf:RDF>
  </metadata>
  <defs
     id="defs17016">
    <clipPath
       id="_clipPath_5gIplBVRyGtwZRN0ZHKaccMVVY1YzgEv">
      <rect
         width="39"
         height="34"
         id="rect4577"
         x="0"
         y="0" />
    </clipPath>
    <clipPath
       id="_clipPath_RlEGtmSKFcMiWJvFgUz8UG1G4GQSTXhI">
      <rect
         width="42.807999"
         height="53.291"
         id="rect5143"
         x="0"
         y="0" />
    </clipPath>
    <clipPath
       id="_clipPath_IRFN68lkqy9xLRkQxS8uCck7fCOsDZYw">
      <path
         style="fill:#ffffff"
         inkscape:connector-curvature="0"
         d="m -1101.062,-53.055 1365.333,0 0,1117.343 -1365.333,0 0,-1117.343 z"
         id="path5206" />
    </clipPath>
    <clipPath
       id="_clipPath_UQEAL9Epr9ipRbmzeXZGW7XlT0l23HDr">
      <path
         style="fill:#ffffff"
         inkscape:connector-curvature="0"
         d="m -1103.756,-75.144 1365.333,0 0,1117.343 -1365.333,0 0,-1117.343 z"
         id="path5222" />
    </clipPath>
    <clipPath
       id="_clipPath_RlEGtmSKFcMiWJvFgUz8UG1G4GQSTXhI-7">
      <rect
         width="42.807999"
         height="53.291"
         id="rect5484"
         x="0"
         y="0" />
    </clipPath>
    <clipPath
       id="_clipPath_IRFN68lkqy9xLRkQxS8uCck7fCOsDZYw-8">
      <path
         style="fill:#ffffff"
         inkscape:connector-curvature="0"
         d="m -1101.062,-53.055 1365.333,0 0,1117.343 -1365.333,0 0,-1117.343 z"
         id="path5547" />
    </clipPath>
    <clipPath
       id="_clipPath_UQEAL9Epr9ipRbmzeXZGW7XlT0l23HDr-2">
      <path
         style="fill:#ffffff"
         inkscape:connector-curvature="0"
         d="m -1103.756,-75.144 1365.333,0 0,1117.343 -1365.333,0 0,-1117.343 z"
         id="path5563" />
    </clipPath>
    <clipPath
       id="clipPath5943">
      <path
         id="path5945"
         d="m -1103.756,-75.144 1365.333,0 0,1117.343 -1365.333,0 0,-1117.343 z"
         inkscape:connector-curvature="0"
         style="fill:#ffffff" />
    </clipPath>
    <clipPath
       id="clipPath5930">
      <path
         id="path5932"
         d="m -1101.062,-53.055 1365.333,0 0,1117.343 -1365.333,0 0,-1117.343 z"
         inkscape:connector-curvature="0"
         style="fill:#ffffff" />
    </clipPath>
  </defs>
  <sodipodi:namedview
     pagecolor="#ffffff"
     bordercolor="#666666"
     borderopacity="1"
     objecttolerance="10"
     gridtolerance="10"
     guidetolerance="10"
     inkscape:pageopacity="0"
     inkscape:pageshadow="2"
     inkscape:window-width="1920"
     inkscape:window-height="1027"
     id="namedview17014"
     showgrid="false"
     inkscape:zoom="12.361274"
     inkscape:cx="0.44044686"
     inkscape:cy="14.540476"
     inkscape:window-x="0"
     inkscape:window-y="0"
     inkscape:window-maximized="1"
     inkscape:current-layer="g5717"
     fit-margin-top="0"
     fit-margin-left="0"
     fit-margin-right="0"
     fit-margin-bottom="0" />
  <g
     transform="matrix(1.215197,0,0,1.2154281,-8.6003307,42.203618)"
     id="g5328"
     style="stroke:#1c1aff;stroke-opacity:1">
    <g
       transform="matrix(0.75316067,0,0,0.75316067,51.287853,-37.371236)"
       id="g5308"
       style="stroke:#1c1aff;stroke-opacity:1">
      <g
         style="stroke:#ffffff;stroke-width:1.65050256;stroke-miterlimit:4;stroke-dasharray:none;stroke-opacity:1"
         transform="matrix(0.6619241,0,0,0.6619241,-49.744277,13.012222)"
         id="g5713">
        <g
           style="stroke:#ffffff;stroke-width:1.65050256;stroke-miterlimit:4;stroke-dasharray:none;stroke-opacity:1"
           id="g5717">
          <g
             transform="matrix(1.2276552,0,0,1.2277597,31.225544,-2.3733072)"
             style="isolation:isolate;fill:#1c1aff;fill-opacity:1;stroke:none;stroke-width:1.65050256;stroke-miterlimit:4;stroke-dasharray:none;stroke-opacity:1"
             id="g5733">
            <g
               style="fill:#1c1aff;fill-opacity:1;stroke:none;stroke-width:1.65050256;stroke-miterlimit:4;stroke-dasharray:none;stroke-opacity:1"
               id="g5735">
              <g
                 id="g8657"
                 transform="translate(-32.1155,0)"
                 style="stroke:none;stroke-opacity:1">
                <g
                   id="g12661"
                   transform="translate(6.7356646e-7,-7.9530235)">
                  <path
                     style="isolation:isolate;fill:#ffffff;fill-opacity:1;stroke:none;stroke-width:1.65050256;stroke-miterlimit:4;stroke-dasharray:none;stroke-opacity:1"
                     inkscape:connector-curvature="0"
                     d="m 32.124759,34.494035 c -4.434,0 -8.029,-3.595 -8.029,-8.03 0,-4.434 3.595,-8.029 8.029,-8.029 4.435,0 8.03,3.595 8.03,8.029 -0.005,4.433 -3.597,8.025 -8.03,8.03 l 0,0 z m 0,-14.634 c -2.672,-0.004 -5.084,1.604 -6.109,4.072 -1.025,2.469 -0.46,5.312 1.43,7.202 1.89,1.89 4.733,2.454 7.201,1.43 2.469,-1.025 4.076,-3.437 4.072,-6.11 -0.005,-3.639 -2.954,-6.588 -6.594,-6.594 z"
                     id="path5723" />
                  <g
                     id="g12653">
                    <g
                       style="stroke:#ffffff;stroke-width:1.34437764;stroke-miterlimit:4;stroke-dasharray:none;stroke-opacity:1"
                       id="g5719"
                       transform="translate(9.401191,2.0289421)">
                      <g
                         id="g8651"
                         transform="matrix(1.2415753,0,0,1.2441586,3.2713157,-7.7705659)"
                         style="stroke:#ffffff;stroke-width:1.08167529;stroke-opacity:1">
                        <path
                           style="fill:none;fill-rule:evenodd;stroke:#ffffff;stroke-width:1.08167529;stroke-linecap:butt;stroke-linejoin:miter;stroke-miterlimit:4;stroke-dasharray:none;stroke-opacity:1"
                           d="m -13.702756,10.60938 34.962311,0"
                           id="path5715"
                           inkscape:connector-curvature="0"
                           sodipodi:nodetypes="cc" />
                        <path
                           sodipodi:nodetypes="ccccccc"
                           inkscape:connector-curvature="0"
                           id="path5721"
                           d="M -13.274692,11.104608 3.5370017,23.083509 20.596688,11.193581 l 1e-6,11.405041 m -7.202137,8.722539 -26.441391,-0.06788 0,-21.087766"
                           style="fill:none;fill-rule:evenodd;stroke:#ffffff;stroke-width:1.08167529;stroke-linecap:butt;stroke-linejoin:miter;stroke-miterlimit:4;stroke-dasharray:none;stroke-opacity:1" />
                      </g>
                    </g>
                    <path
                       style="isolation:isolate;fill:#ffffff;fill-opacity:1;stroke:none;stroke-width:1.65050256;stroke-miterlimit:4;stroke-dasharray:none;stroke-opacity:1"
                       inkscape:connector-curvature="0"
                       d="m 32.124759,30.019036 c -0.233,0 -0.457,-0.093 -0.623,-0.258 -0.165,-0.166 -0.258,-0.39 -0.258,-0.623 l 0,-5.347 c 0,-0.487 0.395,-0.881 0.881,-0.881 0.487,0 0.882,0.394 0.882,0.881 l 0,5.347 c 0,0.233 -0.093,0.457 -0.259,0.623 -0.165,0.165 -0.389,0.258 -0.623,0.258 z"
                       id="path5731" />
                    <path
                       style="fill:#ffffff;fill-opacity:1;stroke:none;stroke-width:1.65050256;stroke-miterlimit:4;stroke-dasharray:none;stroke-opacity:1"
                       inkscape:connector-curvature="0"
                       d="m 34.808759,27.336036 -5.347,0 c -0.487,0 -0.881,-0.395 -0.881,-0.882 0,-0.486 0.394,-0.881 0.881,-0.881 l 5.347,0 c 0.486,0 0.881,0.395 0.881,0.881 0,0.487 -0.395,0.882 -0.881,0.882 z"
                       id="path5739" />
                  </g>
                </g>
              </g>
            </g>
          </g>
        </g>
      </g>
    </g>
  </g>
</svg>
