<?xml version="1.0" encoding="UTF-8" standalone="no"?>
<!-- Created with Inkscape (http://www.inkscape.org/) -->

<svg
   xmlns:dc="http://purl.org/dc/elements/1.1/"
   xmlns:cc="http://creativecommons.org/ns#"
   xmlns:rdf="http://www.w3.org/1999/02/22-rdf-syntax-ns#"
   xmlns:svg="http://www.w3.org/2000/svg"
   xmlns="http://www.w3.org/2000/svg"
   xmlns:sodipodi="http://sodipodi.sourceforge.net/DTD/sodipodi-0.dtd"
   xmlns:inkscape="http://www.inkscape.org/namespaces/inkscape"
   width="11.326248mm"
   height="9.8563175mm"
   viewBox="0 0 40.132375 34.92396"
   id="svg19409"
   version="1.1"
   inkscape:version="0.91 r13725"
   sodipodi:docname="disconnected_user.svg">
  <defs
     id="defs19411">
    <clipPath
       clipPathUnits="userSpaceOnUse"
       id="clipPath5101">
      <path
         d="m 0,838.007 1024,0 L 1024,0 0,0 0,838.007 Z"
         id="path5103"
         inkscape:connector-curvature="0" />
    </clipPath>
  </defs>
  <sodipodi:namedview
     id="base"
     pagecolor="#ffffff"
     bordercolor="#666666"
     borderopacity="1.0"
     inkscape:pageopacity="0.0"
     inkscape:pageshadow="2"
     inkscape:zoom="0.12374369"
     inkscape:cx="-1404.1756"
     inkscape:cy="-321.3376"
     inkscape:document-units="px"
     inkscape:current-layer="layer1"
     showgrid="false"
     fit-margin-top="0"
     fit-margin-left="0"
     fit-margin-right="0"
     fit-margin-bottom="0"
     inkscape:window-width="1280"
     inkscape:window-height="778"
     inkscape:window-x="0"
     inkscape:window-y="0"
     inkscape:window-maximized="1" />
  <metadata
     id="metadata19414">
    <rdf:RDF>
      <cc:Work
         rdf:about="">
        <dc:format>image/svg+xml</dc:format>
        <dc:type
           rdf:resource="http://purl.org/dc/dcmitype/StillImage" />
        <dc:title></dc:title>
      </cc:Work>
    </rdf:RDF>
  </metadata>
  <g
     inkscape:label="Calque 1"
     inkscape:groupmode="layer"
     id="layer1"
     transform="translate(-1103.4613,-61.814925)">
    <g
       id="g4571"
       transform="matrix(1.25,0,0,-1.25,1125.5235,96.262835)">
      <path
         d="m 0,0 0,8.206 c 0,2.269 -1.804,4.073 -4.072,4.073 l -5.817,0 c -2.268,0 -4.072,-1.804 -4.072,-4.073 l 0,-8.142"
         style="fill:none;stroke:#ffffff;stroke-width:0.75;stroke-linecap:round;stroke-linejoin:round;stroke-miterlimit:10;stroke-dasharray:none;stroke-opacity:1"
         id="path4573"
         inkscape:connector-curvature="0" />
    </g>
    <g
       id="g4575"
       transform="matrix(1.25,0,0,-1.25,1116.0704,78.368585)">
      <path
         d="m 0,0 1.164,0 c 1.627,0 2.908,1.277 2.908,2.908 l 0,1.743 C 4.072,6.278 2.791,7.56 1.164,7.56 L 0,7.56 c -1.628,0 -2.908,-1.282 -2.908,-2.909 l 0,-1.743 C -2.908,1.277 -1.628,0 0,0 Z"
         style="fill:none;stroke:#ffffff;stroke-width:0.75;stroke-linecap:round;stroke-linejoin:round;stroke-miterlimit:10;stroke-dasharray:none;stroke-opacity:1"
         id="path4577"
         inkscape:connector-curvature="0" />
    </g>
    <g
       id="g4579"
       transform="matrix(1.25,0,0,-1.25,1111.7064,96.262835)">
      <path
         d="M 0,0 0,7.624"
         style="fill:none;stroke:#ffffff;stroke-width:0.75;stroke-linecap:round;stroke-linejoin:round;stroke-miterlimit:10;stroke-dasharray:none;stroke-opacity:1"
         id="path4581"
         inkscape:connector-curvature="0" />
    </g>
    <g
       id="g4583"
       transform="matrix(1.25,0,0,-1.25,1121.8883,86.73346)">
      <path
         d="M 0,0 0,-7.624"
         style="fill:none;stroke:#ffffff;stroke-width:0.75;stroke-linecap:round;stroke-linejoin:round;stroke-miterlimit:10;stroke-dasharray:none;stroke-opacity:1"
         id="path4585"
         inkscape:connector-curvature="0" />
    </g>
    <g
       id="g4587"
       transform="matrix(1.25,0,0,-1.25,1103.9367,96.262835)">
      <path
         d="M 0,0 20.577,0"
         style="fill:none;stroke:#ffffff;stroke-width:0.75;stroke-linecap:round;stroke-linejoin:round;stroke-miterlimit:10;stroke-dasharray:none;stroke-opacity:1"
         id="path4589"
         inkscape:connector-curvature="0" />
    </g>
    <g
       transform="matrix(1.25,0,0,-1.25,-1.000032e-4,1052.3623)"
       id="g5097">
      <g
         id="g5099"
         clip-path="url(#clipPath5101)">
        <g
           id="g5105"
           transform="translate(914.875,785.5959)">
          <path
             d="m 0,0 c 0,-3.778 -3.063,-6.842 -6.842,-6.842 -3.779,0 -6.843,3.064 -6.843,6.842 0,3.779 3.064,6.842 6.843,6.842 C -3.063,6.842 0,3.779 0,0"
             style="fill:#466ba1;fill-opacity:1;fill-rule:nonzero;stroke:none"
             id="path5107"
             inkscape:connector-curvature="0" />
        </g>
        <g
           id="g5109"
           transform="translate(910.8174,788.3801)">
          <path
             d="M 0,0 -5.568,-5.568"
             style="fill:none;stroke:#ffffff;stroke-width:0.75;stroke-linecap:round;stroke-linejoin:round;stroke-miterlimit:10;stroke-dasharray:none;stroke-opacity:1"
             id="path5111"
             inkscape:connector-curvature="0" />
        </g>
        <g
           id="g5113"
           transform="translate(910.8174,782.8117)">
          <path
             d="M 0,0 -5.568,5.568"
             style="fill:none;stroke:#ffffff;stroke-width:0.75;stroke-linecap:round;stroke-linejoin:round;stroke-miterlimit:10;stroke-dasharray:none;stroke-opacity:1"
             id="path5115"
             inkscape:connector-curvature="0" />
        </g>
      </g>
    </g>
  </g>
</svg>
