<?xml version="1.0" encoding="UTF-8" standalone="no"?>
<!-- Created with Inkscape (http://www.inkscape.org/) -->

<svg
   xmlns:dc="http://purl.org/dc/elements/1.1/"
   xmlns:cc="http://creativecommons.org/ns#"
   xmlns:rdf="http://www.w3.org/1999/02/22-rdf-syntax-ns#"
   xmlns:svg="http://www.w3.org/2000/svg"
   xmlns="http://www.w3.org/2000/svg"
   xmlns:sodipodi="http://sodipodi.sourceforge.net/DTD/sodipodi-0.dtd"
   xmlns:inkscape="http://www.inkscape.org/namespaces/inkscape"
   width="11.65mm"
   height="14.15mm"
   viewBox="0 0 41.279522 50.137795"
   id="svg20741"
   version="1.1"
   inkscape:version="0.91 r13725"
   sodipodi:docname="listmaster.svg">
  <defs
     id="defs20743">
    <inkscape:perspective
       sodipodi:type="inkscape:persp3d"
       inkscape:vp_x="0 : 24.005905 : 1"
       inkscape:vp_y="0 : 999.99998 : 0"
       inkscape:vp_z="40.132271 : 24.005905 : 1"
       inkscape:persp3d-origin="20.066135 : 16.003936 : 1"
       id="perspective5366" />
    <clipPath
       clipPathUnits="userSpaceOnUse"
       id="clipPath5221">
      <path
         d="m 0,838.007 1024,0 L 1024,0 0,0 0,838.007 Z"
         id="path5223"
         inkscape:connector-curvature="0" />
    </clipPath>
    <clipPath
       clipPathUnits="userSpaceOnUse"
       id="clipPath5101">
      <path
         d="m 0,838.007 1024,0 L 1024,0 0,0 0,838.007 Z"
         id="path5103"
         inkscape:connector-curvature="0" />
    </clipPath>
  </defs>
  <sodipodi:namedview
     id="base"
     pagecolor="#ffffff"
     bordercolor="#666666"
     borderopacity="1.0"
     inkscape:pageopacity="0.0"
     inkscape:pageshadow="2"
     inkscape:zoom="11.2"
     inkscape:cx="25.261837"
     inkscape:cy="26.042068"
     inkscape:document-units="px"
     inkscape:current-layer="g5188"
     showgrid="false"
     fit-margin-top="0"
     fit-margin-left="0"
     fit-margin-right="0"
     fit-margin-bottom="0"
     inkscape:window-width="1920"
     inkscape:window-height="1027"
     inkscape:window-x="1920"
     inkscape:window-y="0"
     inkscape:window-maximized="1" />
  <metadata
     id="metadata20746">
    <rdf:RDF>
      <cc:Work
         rdf:about="">
        <dc:format>image/svg+xml</dc:format>
        <dc:type
           rdf:resource="http://purl.org/dc/dcmitype/StillImage" />
        <dc:title />
      </cc:Work>
    </rdf:RDF>
  </metadata>
  <g
     inkscape:label="Calque 1"
     inkscape:groupmode="layer"
     id="layer1"
     transform="translate(1085.7804,183.08347)">
    <g
       id="g5188"
       style="stroke:#ffffff;stroke-opacity:1">
      <g
         style="stroke:#ffffff;stroke-opacity:1"
         transform="matrix(1.25,0,0,-1.25,-1063.7182,-147.02428)"
         id="g4571">
        <path
           inkscape:connector-curvature="0"
           id="path4573"
           style="fill:none;stroke:#ffffff;stroke-width:0.75;stroke-linecap:round;stroke-linejoin:round;stroke-miterlimit:10;stroke-dasharray:none;stroke-opacity:1"
           d="m 0,0 0,8.206 c 0,2.269 -1.804,4.073 -4.072,4.073 l -5.817,0 c -2.268,0 -4.072,-1.804 -4.072,-4.073 l 0,-8.142" />
      </g>
      <g
         style="stroke:#ffffff;stroke-opacity:1"
         transform="matrix(1.25,0,0,-1.25,-1073.1713,-164.91853)"
         id="g4575">
        <path
           inkscape:connector-curvature="0"
           id="path4577"
           style="fill:none;stroke:#ffffff;stroke-width:0.75;stroke-linecap:round;stroke-linejoin:round;stroke-miterlimit:10;stroke-dasharray:none;stroke-opacity:1"
           d="m 0,0 1.164,0 c 1.627,0 2.908,1.277 2.908,2.908 l 0,1.743 C 4.072,6.278 2.791,7.56 1.164,7.56 L 0,7.56 c -1.628,0 -2.908,-1.282 -2.908,-2.909 l 0,-1.743 C -2.908,1.277 -1.628,0 0,0 Z" />
      </g>
      <g
         style="stroke:#ffffff;stroke-opacity:1"
         transform="matrix(1.25,0,0,-1.25,-1077.5353,-147.02428)"
         id="g4579">
        <path
           inkscape:connector-curvature="0"
           id="path4581"
           style="fill:none;stroke:#ffffff;stroke-width:0.75;stroke-linecap:round;stroke-linejoin:round;stroke-miterlimit:10;stroke-dasharray:none;stroke-opacity:1"
           d="M 0,0 0,7.624" />
      </g>
      <g
         style="stroke:#ffffff;stroke-opacity:1"
         transform="matrix(1.25,0,0,-1.25,-1067.3534,-156.55365)"
         id="g4583">
        <path
           inkscape:connector-curvature="0"
           id="path4585"
           style="fill:none;stroke:#ffffff;stroke-width:0.75;stroke-linecap:round;stroke-linejoin:round;stroke-miterlimit:10;stroke-dasharray:none;stroke-opacity:1"
           d="M 0,0 0,-7.624" />
      </g>
      <g
         style="stroke:#ffffff;stroke-opacity:1"
         transform="matrix(1.25,0,0,-1.25,-1085.305,-147.02428)"
         id="g4587">
        <path
           inkscape:connector-curvature="0"
           id="path4589"
           style="fill:none;stroke:#ffffff;stroke-width:0.75;stroke-linecap:round;stroke-linejoin:round;stroke-miterlimit:10;stroke-dasharray:none;stroke-opacity:1"
           d="M 0,0 20.577,0" />
      </g>
    </g>
    <g
       transform="matrix(1.25,0,0,-1.25,-2187.2419,806.63331)"
       id="g5217"
       style="stroke:#ff4eff;stroke-opacity:1">
      <g
         id="g5219"
         clip-path="url(#clipPath5221)"
         style="stroke:#ff4eff;stroke-opacity:1">
        <path
           id="path5357"
           d="m 906.93691,785.40405 0.69664,-0.34368 c 0.20878,-0.11864 0.29973,-0.37027 0.21705,-0.59529 -0.18399,-0.49506 -0.54573,-0.9492 -0.88061,-1.34606 -0.15297,-0.18206 -0.41756,-0.22707 -0.62634,-0.10842 l -0.60154,0.34367 c -0.33074,-0.28025 -0.71523,-0.50323 -1.13486,-0.64848 l 0,-0.68735 c 0,-0.23729 -0.17158,-0.44186 -0.40723,-0.48277 -0.50851,-0.0859 -1.04184,-0.09 -1.56896,0 -0.23772,0.0409 -0.41343,0.24343 -0.41343,0.48277 l 0,0.68735 c -0.41963,0.14729 -0.80412,0.36823 -1.13486,0.64848 l -0.60154,-0.34162 c -0.20671,-0.11866 -0.47337,-0.0737 -0.62634,0.10842 -0.33488,0.39686 -0.68836,0.85099 -0.87233,1.34401 -0.0827,0.22297 0.008,0.4746 0.21704,0.59529 l 0.68837,0.34368 c -0.0806,0.42755 -0.0806,0.86737 0,1.29696 l -0.68837,0.34572 c -0.20877,0.11865 -0.3018,0.37027 -0.21704,0.59324 0.18397,0.49506 0.53745,0.9492 0.87233,1.34607 0.15297,0.18206 0.41756,0.22706 0.62634,0.10841 l 0.60154,-0.34367 c 0.33074,0.28025 0.71523,0.50324 1.13486,0.64848 l 0,0.68939 c 0,0.23526 0.16951,0.43982 0.40517,0.48074 0.50851,0.0859 1.0439,0.09 1.57102,0.002 0.23772,-0.0409 0.41343,-0.24344 0.41343,-0.48278 l 0,-0.68735 c 0.41963,-0.14729 0.80412,-0.36822 1.13486,-0.64848 l 0.60154,0.34367 c 0.20671,0.11865 0.47337,0.0737 0.62634,-0.10842 0.33488,-0.39686 0.68629,-0.851 0.87027,-1.34605 0.0827,-0.22299 0.002,-0.4746 -0.20671,-0.5953 l -0.69664,-0.34367 c 0.0806,-0.4296 0.0806,-0.86942 0,-1.29901 z m -2.43095,-0.43164 c 1.22374,1.57517 -0.59327,3.37332 -2.18498,2.16229 -1.22374,-1.57518 0.59327,-3.37334 2.18498,-2.16229 z"
           inkscape:connector-curvature="0"
           style="fill:none;stroke:#ffffff;stroke-width:0.72000003;stroke-miterlimit:4;stroke-dasharray:none;stroke-opacity:1"
           sodipodi:nodetypes="cccccccsccsccccccccccccccsccscccccccccccc" />
        <path
           sodipodi:nodetypes="cccccccsccsccccccccccccccsccsccccccccccccccccccsccsccccccccccccccsccsccccccccccc"
           style="fill:none;stroke:#ffffff;stroke-width:0.56;stroke-miterlimit:4;stroke-dasharray:none;stroke-opacity:1"
           inkscape:connector-curvature="0"
           d="m 911.2214,787.34949 -0.16951,-0.29253 c -0.062,-0.10843 -0.1943,-0.15343 -0.31213,-0.11047 -0.24393,0.09 -0.46718,0.21889 -0.66356,0.38049 -0.0951,0.0777 -0.11989,0.2148 -0.0579,0.32118 l 0.16951,0.29253 c -0.14263,0.16365 -0.25426,0.3539 -0.32868,0.56051 l -0.34107,0 c -0.12403,0 -0.23152,0.088 -0.2522,0.21071 -0.0413,0.24548 -0.0434,0.50324 0,0.75895 0.0207,0.12274 0.12817,0.21275 0.2522,0.21275 l 0.34107,0 c 0.0744,0.20661 0.18605,0.39687 0.32868,0.56051 l -0.16951,0.29254 c -0.062,0.10637 -0.0393,0.24344 0.0579,0.32117 0.19638,0.1616 0.4217,0.29048 0.66356,0.38049 0.11783,0.043 0.25011,-0.002 0.31213,-0.11046 l 0.16951,-0.29253 c 0.21705,0.0389 0.43823,0.0389 0.65528,0 l 0.16951,0.29253 c 0.062,0.10843 0.19431,0.15342 0.31214,0.11046 0.24392,-0.09 0.46716,-0.21889 0.66355,-0.38049 0.0951,-0.0777 0.11988,-0.2148 0.0579,-0.32117 l -0.16951,-0.29254 c 0.14263,-0.16364 0.25426,-0.3539 0.32868,-0.56051 l 0.34107,0 c 0.12403,0 0.23152,-0.088 0.25219,-0.21071 0.0414,-0.24547 0.0434,-0.50324 0,-0.75895 -0.0207,-0.12273 -0.12816,-0.21275 -0.25219,-0.21275 l -0.34107,0 c -0.0744,-0.20661 -0.18605,-0.39686 -0.32868,-0.56051 l 0.16951,-0.29253 c 0.062,-0.10638 0.0392,-0.24344 -0.0579,-0.32118 -0.19639,-0.1616 -0.4217,-0.29048 -0.66355,-0.38049 -0.11783,-0.043 -0.25013,0.002 -0.31214,0.11047 l -0.16951,0.29253 c -0.21498,-0.0389 -0.43823,-0.0389 -0.65528,0 z m -0.21705,1.20286 c 0.79584,-0.60552 1.70333,0.29253 1.09145,1.08011 -0.79585,0.60758 -1.70333,-0.29253 -1.09145,-1.08011 z m 0.21705,-7.3174 -0.16951,-0.29253 c -0.062,-0.10842 -0.1943,-0.15343 -0.31213,-0.11047 -0.24393,0.09 -0.46718,0.21889 -0.66356,0.3805 -0.0951,0.0777 -0.11989,0.21479 -0.0579,0.32117 l 0.16951,0.29253 c -0.14263,0.16366 -0.25426,0.35391 -0.32868,0.56052 l -0.34107,0 c -0.12403,0 -0.23152,0.088 -0.2522,0.21071 -0.0413,0.24548 -0.0434,0.50323 0,0.75894 0.0207,0.12274 0.12817,0.21275 0.2522,0.21275 l 0.34107,0 c 0.0744,0.20662 0.18605,0.39686 0.32868,0.56051 l -0.16951,0.29254 c -0.062,0.10637 -0.0393,0.24344 0.0579,0.32117 0.19638,0.16161 0.4217,0.29049 0.66356,0.3805 0.11783,0.043 0.25011,-0.002 0.31213,-0.11046 l 0.16951,-0.29254 c 0.21705,0.0389 0.43823,0.0389 0.65528,0 l 0.16951,0.29254 c 0.062,0.10841 0.19431,0.15342 0.31214,0.11046 0.24392,-0.09 0.46716,-0.21889 0.66355,-0.3805 0.0951,-0.0777 0.11988,-0.2148 0.0579,-0.32117 l -0.16951,-0.29254 c 0.14263,-0.16365 0.25426,-0.35389 0.32868,-0.56051 l 0.34107,0 c 0.12403,0 0.23152,-0.088 0.25219,-0.21071 0.0414,-0.24548 0.0434,-0.50323 0,-0.75894 -0.0207,-0.12274 -0.12816,-0.21275 -0.25219,-0.21275 l -0.34107,0 c -0.0744,-0.20661 -0.18605,-0.39686 -0.32868,-0.56052 l 0.16951,-0.29253 c 0.062,-0.10638 0.0392,-0.24343 -0.0579,-0.32117 -0.19639,-0.16161 -0.4217,-0.29049 -0.66355,-0.3805 -0.11783,-0.043 -0.25013,0.002 -0.31214,0.11047 l -0.16951,0.29253 c -0.21498,-0.0388 -0.43823,-0.0388 -0.65528,0 z m -0.21705,1.20491 c 0.79584,-0.60552 1.70333,0.29253 1.09145,1.08011 -0.79585,0.60553 -1.70333,-0.29253 -1.09145,-1.08011 z"
           id="path6111" />
      </g>
    </g>
  </g>
</svg>
