<?xml version="1.0" encoding="UTF-8" standalone="no"?>
<!-- Created with Inkscape (http://www.inkscape.org/) -->

<svg
   xmlns:dc="http://purl.org/dc/elements/1.1/"
   xmlns:cc="http://creativecommons.org/ns#"
   xmlns:rdf="http://www.w3.org/1999/02/22-rdf-syntax-ns#"
   xmlns:svg="http://www.w3.org/2000/svg"
   xmlns="http://www.w3.org/2000/svg"
   xmlns:sodipodi="http://sodipodi.sourceforge.net/DTD/sodipodi-0.dtd"
   xmlns:inkscape="http://www.inkscape.org/namespaces/inkscape"
   width="7.9434972mm"
   height="11.258333mm"
   viewBox="0 0 28.14625 39.891732"
   id="svg20079"
   version="1.1"
   inkscape:version="0.91 r13725"
   sodipodi:docname="support.svg">
  <defs
     id="defs20081">
    <clipPath
       clipPathUnits="userSpaceOnUse"
       id="clipPath4527">
      <path
         d="m 0,838.007 1024,0 L 1024,0 0,0 0,838.007 Z"
         id="path4529"
         inkscape:connector-curvature="0" />
    </clipPath>
    <clipPath
       id="clipPath4527-5"
       clipPathUnits="userSpaceOnUse">
      <path
         inkscape:connector-curvature="0"
         id="path4529-3"
         d="m 0,838.007 1024,0 L 1024,0 0,0 0,838.007 Z" />
    </clipPath>
  </defs>
  <sodipodi:namedview
     id="base"
     pagecolor="#ffffff"
     bordercolor="#666666"
     borderopacity="1.0"
     inkscape:pageopacity="0.0"
     inkscape:pageshadow="2"
     inkscape:zoom="15.839192"
     inkscape:cx="21.797157"
     inkscape:cy="16.884776"
     inkscape:document-units="px"
     inkscape:current-layer="layer1"
     showgrid="false"
     fit-margin-top="0"
     fit-margin-left="0"
     fit-margin-right="0"
     fit-margin-bottom="0"
     inkscape:window-width="1920"
     inkscape:window-height="990"
     inkscape:window-x="1280"
     inkscape:window-y="1"
     inkscape:window-maximized="1" />
  <metadata
     id="metadata20084">
    <rdf:RDF>
      <cc:Work
         rdf:about="">
        <dc:format>image/svg+xml</dc:format>
        <dc:type
           rdf:resource="http://purl.org/dc/dcmitype/StillImage" />
        <dc:title></dc:title>
      </cc:Work>
    </rdf:RDF>
  </metadata>
  <g
     inkscape:label="Calque 1"
     inkscape:groupmode="layer"
     id="layer1"
     transform="translate(1073.4043,124.72652)">
    <g
       transform="matrix(1.25,0,0,-1.25,-1936.9683,859.18611)"
       id="g4523">
      <g
         id="g4525"
         clip-path="url(#clipPath4527)">
        <g
           id="g4531"
           transform="translate(712.9932,775.8171)" />
        <g
           id="g4551"
           transform="translate(706.1422,759.6247)">
          <path
             d="M 0,0 -4.033,-4.033 -8.065,0"
             style="fill:none;stroke:#ffffff;stroke-width:0.75;stroke-linecap:round;stroke-linejoin:round;stroke-miterlimit:10;stroke-dasharray:none;stroke-opacity:1"
             id="path4553"
             inkscape:connector-curvature="0" />
        </g>
      </g>
    </g>
    <g
       id="layer1-9"
       inkscape:label="Calque 1"
       transform="translate(-7.4370589e-6,4.2896829e-6)">
      <g
         transform="matrix(1.2454878,0,0,1.2454878,-1073.3538,-124.71483)"
         id="g5029">
        <g
           id="g4256"
           transform="matrix(1.608143,0,0,1.608143,-5.858071,-6.7294032)"
           style="fill:#ffffff;fill-opacity:1">
          <title
             id="title4258">Support</title>
          <path
             d="m 10.665,15.947 c 0.266,-0.005 0.521,0.101 0.707,0.29 0.378,0.365 0.389,0.966 0.023,1.345 -0.007,0.008 -0.016,0.016 -0.023,0.023 -0.394,0.387 -1.024,0.387 -1.418,0 C 9.576,17.24 9.565,16.638 9.93,16.26 c 0.008,-0.008 0.016,-0.016 0.023,-0.023 0.187,-0.189 0.442,-0.295 0.708,-0.29 m 0.001,-0.408 c -0.369,-0.004 -0.723,0.143 -0.981,0.404 -0.538,0.521 -0.553,1.378 -0.032,1.917 0.01,0.01 0.021,0.021 0.032,0.031 0.552,0.543 1.436,0.543 1.987,0 0.538,-0.52 0.553,-1.379 0.032,-1.916 -0.011,-0.012 -0.021,-0.022 -0.032,-0.033 -0.265,-0.268 -0.628,-0.412 -1.003,-0.401 l -0.003,-0.002 z"
             id="path4260"
             inkscape:connector-curvature="0"
             style="fill:#ffffff;fill-opacity:1;stroke:#ffffff;stroke-width:0.04992704;stroke-miterlimit:4;stroke-dasharray:none;stroke-opacity:1" />
          <path
             d="m 10.675,4.653 c 1.174,0 2.106,0.317 2.801,0.919 0.657,0.551 1.033,1.368 1.024,2.226 0.006,0.487 -0.116,0.969 -0.355,1.394 -0.404,0.595 -0.893,1.126 -1.45,1.581 -0.357,0.293 -0.687,0.62 -0.984,0.975 -0.168,0.218 -0.287,0.47 -0.347,0.738 -0.095,0.431 -0.139,0.871 -0.133,1.312 0.01,0.184 -0.068,0.362 -0.212,0.479 -0.093,0.08 -0.213,0.123 -0.336,0.119 l -0.067,0 C 10.446,14.375 10.288,14.302 10.163,14.187 10.056,14.082 9.998,13.94 10,13.791 l 0,-0.453 c -0.009,-0.497 0.075,-0.992 0.25,-1.459 0.134,-0.335 0.322,-0.646 0.559,-0.921 0.339,-0.362 0.701,-0.702 1.084,-1.017 0.403,-0.308 0.751,-0.681 1.03,-1.104 0.17,-0.285 0.259,-0.611 0.255,-0.943 C 13.175,7.285 12.916,6.706 12.465,6.297 11.994,5.843 11.361,5.597 10.708,5.613 10.09,5.595 9.49,5.821 9.038,6.242 8.59,6.653 8.289,7.296 8.14,8.174 8.124,8.376 8.026,8.563 7.869,8.692 7.743,8.803 7.581,8.864 7.414,8.865 l -0.087,0 C 7.166,8.871 7.012,8.799 6.915,8.67 6.794,8.477 6.761,8.241 6.825,8.022 l 0,-0.027 C 6.969,6.91 7.367,6.097 8.026,5.528 8.685,4.959 9.59,4.66 10.691,4.66 m 0,-0.406 C 9.486,4.254 8.509,4.576 7.76,5.219 7.012,5.863 6.567,6.766 6.424,7.93 6.336,8.259 6.393,8.611 6.581,8.895 c 0.17,0.231 0.44,0.367 0.727,0.366 l 0.103,0 C 7.673,9.26 7.927,9.164 8.124,8.99 8.354,8.797 8.5,8.522 8.531,8.223 8.663,7.451 8.919,6.891 9.298,6.542 9.677,6.191 10.179,6.003 10.694,6.021 c 0.549,-0.015 1.081,0.192 1.475,0.575 0.373,0.332 0.588,0.806 0.592,1.304 0.003,0.258 -0.065,0.512 -0.198,0.735 -0.258,0.383 -0.576,0.723 -0.943,1.003 -0.398,0.327 -0.774,0.681 -1.125,1.058 -0.266,0.312 -0.477,0.668 -0.624,1.051 -0.19,0.513 -0.282,1.057 -0.271,1.604 l 0,0.463 c -0.004,0.263 0.104,0.514 0.295,0.694 0.193,0.166 0.435,0.268 0.688,0.29 l 0.108,0 c 0.22,0.003 0.433,-0.074 0.6,-0.217 0.229,-0.191 0.359,-0.475 0.355,-0.773 l 0,-0.019 c -0.006,-0.402 0.033,-0.804 0.116,-1.198 0.045,-0.217 0.138,-0.422 0.271,-0.6 0.28,-0.329 0.59,-0.633 0.924,-0.908 0.592,-0.481 1.108,-1.048 1.535,-1.68 C 14.766,8.914 14.909,8.361 14.904,7.8 14.913,6.826 14.489,5.9 13.746,5.27 12.973,4.589 11.95,4.248 10.677,4.248 l 0.014,0.006 z"
             id="path4262"
             inkscape:connector-curvature="0"
             style="fill:#ffffff;fill-opacity:1;stroke:#ffffff;stroke-width:0.04992704;stroke-miterlimit:4;stroke-dasharray:none;stroke-opacity:1" />
        </g>
      </g>
    </g>
  </g>
</svg>
