<?xml version="1.0" encoding="UTF-8" standalone="no"?>
<!-- Created with Inkscape (http://www.inkscape.org/) -->

<svg
   xmlns:dc="http://purl.org/dc/elements/1.1/"
   xmlns:cc="http://creativecommons.org/ns#"
   xmlns:rdf="http://www.w3.org/1999/02/22-rdf-syntax-ns#"
   xmlns:svg="http://www.w3.org/2000/svg"
   xmlns="http://www.w3.org/2000/svg"
   xmlns:sodipodi="http://sodipodi.sourceforge.net/DTD/sodipodi-0.dtd"
   xmlns:inkscape="http://www.inkscape.org/namespaces/inkscape"
   width="11.32622mm"
   height="14.1mm"
   viewBox="0 0 40.13227 49.960632"
   id="svg20741"
   version="1.1"
   inkscape:version="0.91 r13725"
   sodipodi:docname="users.svg">
  <defs
     id="defs20743">
    <clipPath
       clipPathUnits="userSpaceOnUse"
       id="clipPath5221">
      <path
         d="m 0,838.007 1024,0 L 1024,0 0,0 0,838.007 Z"
         id="path5223"
         inkscape:connector-curvature="0" />
    </clipPath>
    <clipPath
       clipPathUnits="userSpaceOnUse"
       id="clipPath5101">
      <path
         d="m 0,838.007 1024,0 L 1024,0 0,0 0,838.007 Z"
         id="path5103"
         inkscape:connector-curvature="0" />
    </clipPath>
  </defs>
  <sodipodi:namedview
     id="base"
     pagecolor="#ffffff"
     bordercolor="#666666"
     borderopacity="1.0"
     inkscape:pageopacity="0.0"
     inkscape:pageshadow="2"
     inkscape:zoom="15.839192"
     inkscape:cx="17.70346"
     inkscape:cy="25.494891"
     inkscape:document-units="px"
     inkscape:current-layer="g4429"
     showgrid="false"
     fit-margin-top="0"
     fit-margin-left="0"
     fit-margin-right="0"
     fit-margin-bottom="0"
     inkscape:window-width="1920"
     inkscape:window-height="1027"
     inkscape:window-x="1600"
     inkscape:window-y="0"
     inkscape:window-maximized="1" />
  <metadata
     id="metadata20746">
    <rdf:RDF>
      <cc:Work
         rdf:about="">
        <dc:format>image/svg+xml</dc:format>
        <dc:type
           rdf:resource="http://purl.org/dc/dcmitype/StillImage" />
        <dc:title></dc:title>
      </cc:Work>
    </rdf:RDF>
  </metadata>
  <g
     inkscape:label="Calque 1"
     inkscape:groupmode="layer"
     id="layer1"
     transform="translate(1085.7804,182.9063)">
    <g
       id="g4335"
       transform="translate(6.7301135,0)">
      <g
         id="g4411"
         transform="translate(-2.6867288,-44.009021)">
        <g
           style="stroke:#000000;stroke-opacity:1"
           transform="matrix(1.25,0,0,-1.25,-1063.7182,-145.02428)"
           id="g4413">
          <path
             inkscape:connector-curvature="0"
             id="path4415"
             style="fill:none;stroke:#000000;stroke-width:0.75;stroke-linecap:round;stroke-linejoin:round;stroke-miterlimit:10;stroke-dasharray:none;stroke-opacity:1"
             d="m 0,0 0,8.206 m -2.451508,3.784103 C -2.9654001,12.221824 -3.4664469,12.279 -4.072,12.279 l -4.348184,0 m -4.71808,-1.60186 C -13.65565,9.9942966 -13.961,8.7466448 -13.961,7.8131429"
             sodipodi:nodetypes="cccsccc" />
        </g>
        <g
           style="stroke:#000000;stroke-opacity:1"
           transform="matrix(1.25,0,0,-1.25,-1073.1713,-162.91853)"
           id="g4417">
          <path
             inkscape:connector-curvature="0"
             id="path4419"
             style="fill:none;stroke:#000000;stroke-width:0.75;stroke-linecap:round;stroke-linejoin:round;stroke-miterlimit:10;stroke-dasharray:none;stroke-opacity:1"
             d="m 0,0 1.164,0 c 1.627,0 2.908,1.277 2.908,2.908 l 0,1.743 C 4.072,6.278 2.791,7.56 1.164,7.56 L 0,7.56 c -1.628,0 -2.908,-1.282 -2.908,-2.909 l 0,-1.743 C -2.908,1.277 -1.628,0 0,0 Z" />
        </g>
        <g
           style="stroke:#000000;stroke-opacity:1"
           transform="matrix(1.25,0,0,-1.25,-1077.5353,-145.02428)"
           id="g4421">
          <path
             inkscape:connector-curvature="0"
             id="path4423"
             style="fill:none;stroke:#000000;stroke-width:0.75;stroke-linecap:round;stroke-linejoin:round;stroke-miterlimit:10;stroke-dasharray:none;stroke-opacity:1"
             d="M 0,0 0,7.624" />
        </g>
        <g
           style="stroke:#000000;stroke-opacity:1"
           transform="matrix(1.25,0,0,-1.25,-1067.3534,-154.55365)"
           id="g4425">
          <path
             inkscape:connector-curvature="0"
             id="path4427"
             style="fill:none;stroke:#000000;stroke-width:0.75;stroke-linecap:round;stroke-linejoin:round;stroke-miterlimit:10;stroke-dasharray:none;stroke-opacity:1"
             d="M 0,0 0,-7.624" />
        </g>
      </g>
      <g
         style="stroke:#ffffff;stroke-opacity:1"
         transform="matrix(1.25,0,0,-1.25,-1067.4034,-138.45565)"
         id="g4591">
        <path
           inkscape:connector-curvature="0"
           id="path4593"
           style="fill:none;stroke:#ffffff;stroke-width:0.75;stroke-linecap:round;stroke-linejoin:round;stroke-miterlimit:10;stroke-dasharray:none;stroke-opacity:1"
           d="M 0,0 -4.032,-4.033 -8.064,0" />
      </g>
      <g
         transform="translate(5.9382716,-4.6786618)"
         id="g4377"
         style="stroke:#ffffff;stroke-opacity:1">
        <g
           id="g4379"
           transform="matrix(1.25,0,0,-1.25,-1063.7182,-145.02428)"
           style="stroke:#ffffff;stroke-opacity:1">
          <path
             d="m 0,0 0,8.206 c 0,2.269 -1.804,4.073 -4.072,4.073 l -2.617,0"
             style="fill:none;stroke:#ffffff;stroke-width:0.75;stroke-linecap:round;stroke-linejoin:round;stroke-miterlimit:10;stroke-dasharray:none;stroke-opacity:1"
             id="path4381"
             inkscape:connector-curvature="0"
             sodipodi:nodetypes="cssc" />
        </g>
        <g
           id="g4383"
           transform="matrix(1.25,0,0,-1.25,-1073.1713,-162.91853)"
           style="stroke:#ffffff;stroke-opacity:1">
          <path
             d="M -0.78733709,0.11764706 C -0.52651431,0.02780279 -0.31212007,0.03699576 0,0 l 1.164,0 c 1.627,0 2.908,1.277 2.908,2.908 l 0,1.743 C 4.072,6.278 2.791,7.56 1.164,7.56 L 0,7.56 c -1.2844765,0 -2.2808923,-0.726624 -2.6743516,-1.8625205"
             style="fill:none;stroke:#ffffff;stroke-width:0.75;stroke-linecap:round;stroke-linejoin:round;stroke-miterlimit:10;stroke-dasharray:none;stroke-opacity:1"
             id="path4385"
             inkscape:connector-curvature="0"
             sodipodi:nodetypes="ccsssssc" />
        </g>
        <g
           id="g4391"
           transform="matrix(1.25,0,0,-1.25,-1067.3534,-154.55365)"
           style="stroke:#ffffff;stroke-opacity:1">
          <path
             d="M 0,0 0,-7.624"
             style="fill:none;stroke:#ffffff;stroke-width:0.75;stroke-linecap:round;stroke-linejoin:round;stroke-miterlimit:10;stroke-dasharray:none;stroke-opacity:1"
             id="path4393"
             inkscape:connector-curvature="0" />
        </g>
      </g>
      <g
         id="g4349"
         style="fill:none;fill-opacity:1;stroke:#ffffff;stroke-opacity:1"
         transform="translate(0,-2)">
        <g
           id="g4571"
           transform="matrix(1.25,0,0,-1.25,-1063.7182,-145.02428)"
           style="fill:none;fill-opacity:1;stroke:#ffffff;stroke-opacity:1">
          <path
             d="m 0,0 0,8.206 c 0,2.269 -1.804,4.073 -4.072,4.073 l -5.817,0 c -2.268,0 -4.072,-1.804 -4.072,-4.073 l 0,-8.142"
             style="fill:none;fill-opacity:1;stroke:#ffffff;stroke-width:0.75;stroke-linecap:round;stroke-linejoin:round;stroke-miterlimit:10;stroke-dasharray:none;stroke-opacity:1"
             id="path4573"
             inkscape:connector-curvature="0" />
        </g>
        <g
           id="g4575"
           transform="matrix(1.25,0,0,-1.25,-1073.1713,-162.91853)"
           style="fill:none;fill-opacity:1;stroke:#ffffff;stroke-opacity:1">
          <path
             d="m 0,0 1.164,0 c 1.627,0 2.908,1.277 2.908,2.908 l 0,1.743 C 4.072,6.278 2.791,7.56 1.164,7.56 L 0,7.56 c -1.628,0 -2.908,-1.282 -2.908,-2.909 l 0,-1.743 C -2.908,1.277 -1.628,0 0,0 Z"
             style="fill:none;fill-opacity:1;stroke:#ffffff;stroke-width:0.75;stroke-linecap:round;stroke-linejoin:round;stroke-miterlimit:10;stroke-dasharray:none;stroke-opacity:1"
             id="path4577"
             inkscape:connector-curvature="0" />
        </g>
        <g
           id="g4579"
           transform="matrix(1.25,0,0,-1.25,-1077.5353,-145.02428)"
           style="fill:none;fill-opacity:1;stroke:#ffffff;stroke-opacity:1">
          <path
             d="M 0,0 0,7.624"
             style="fill:none;fill-opacity:1;stroke:#ffffff;stroke-width:0.75;stroke-linecap:round;stroke-linejoin:round;stroke-miterlimit:10;stroke-dasharray:none;stroke-opacity:1"
             id="path4581"
             inkscape:connector-curvature="0" />
        </g>
        <g
           id="g4583"
           transform="matrix(1.25,0,0,-1.25,-1067.3534,-154.55365)"
           style="fill:none;fill-opacity:1;stroke:#ffffff;stroke-opacity:1">
          <path
             d="M 0,0 0,-7.624"
             style="fill:none;fill-opacity:1;stroke:#ffffff;stroke-width:0.75;stroke-linecap:round;stroke-linejoin:round;stroke-miterlimit:10;stroke-dasharray:none;stroke-opacity:1"
             id="path4585"
             inkscape:connector-curvature="0" />
        </g>
      </g>
      <g
         style="stroke:#ffffff;stroke-opacity:1"
         transform="matrix(1.25,0,0,-1.25,-1085.305,-147.02428)"
         id="g4587">
        <path
           inkscape:connector-curvature="0"
           id="path4589"
           style="fill:none;stroke:#ffffff;stroke-width:0.75;stroke-linecap:round;stroke-linejoin:round;stroke-miterlimit:10;stroke-dasharray:none;stroke-opacity:1"
           d="M 0,0 20.577,0" />
      </g>
      <g
         id="g4429"
         transform="matrix(-1,0,0,1,-2150.8321,-2.6786618)"
         style="stroke:#ffffff;stroke-opacity:1">
        <g
           style="stroke:#ffffff;stroke-opacity:1"
           transform="matrix(1.25,0,0,-1.25,-1063.7182,-147.02428)"
           id="g4431">
          <path
             sodipodi:nodetypes="cssc"
             inkscape:connector-curvature="0"
             id="path4433"
             style="fill:none;stroke:#ffffff;stroke-width:0.75;stroke-linecap:round;stroke-linejoin:round;stroke-miterlimit:10;stroke-dasharray:none;stroke-opacity:1"
             d="m 0,0 0,8.206 c 0,2.269 -1.804,4.073 -4.072,4.073 l -2.617,0" />
        </g>
        <g
           style="stroke:#ffffff;stroke-opacity:1"
           transform="matrix(1.25,0,0,-1.25,-1073.1713,-164.91853)"
           id="g4435">
          <path
             sodipodi:nodetypes="ccsssssc"
             inkscape:connector-curvature="0"
             id="path4437"
             style="fill:none;stroke:#ffffff;stroke-width:0.75;stroke-linecap:round;stroke-linejoin:round;stroke-miterlimit:10;stroke-dasharray:none;stroke-opacity:1"
             d="M -0.78733709,0.11764706 C -0.52651431,0.02780279 -0.31212007,0.03699576 0,0 l 1.164,0 c 1.627,0 2.908,1.277 2.908,2.908 l 0,1.743 C 4.072,6.278 2.791,7.56 1.164,7.56 L 0,7.56 c -1.2844765,0 -2.2808923,-0.726624 -2.6743516,-1.8625205" />
        </g>
        <g
           style="stroke:#ffffff;stroke-opacity:1"
           transform="matrix(1.25,0,0,-1.25,-1067.3534,-156.55365)"
           id="g4439">
          <path
             inkscape:connector-curvature="0"
             id="path4441"
             style="fill:none;stroke:#ffffff;stroke-width:0.75;stroke-linecap:round;stroke-linejoin:round;stroke-miterlimit:10;stroke-dasharray:none;stroke-opacity:1"
             d="M 0,0 0,-7.624" />
        </g>
      </g>
      <g
         style="fill:none;fill-opacity:1;stroke:#ffffff;stroke-opacity:1"
         id="g4443"
         transform="translate(0,-8)">
        <g
           style="fill:none;fill-opacity:1;stroke:#ffffff;stroke-opacity:1"
           transform="matrix(1.25,0,0,-1.25,-1063.7182,-145.02428)"
           id="g4445" />
        <g
           style="fill:none;fill-opacity:1;stroke:#ffffff;stroke-opacity:1"
           transform="matrix(1.25,0,0,-1.25,-1073.1713,-164.91853)"
           id="g4449">
          <path
             inkscape:connector-curvature="0"
             id="path4451"
             style="fill:none;fill-opacity:1;stroke:#ffffff;stroke-width:0.75;stroke-linecap:round;stroke-linejoin:round;stroke-miterlimit:10;stroke-dasharray:none;stroke-opacity:1"
             d="M 4.072,3.2597993 4.072,4.651 C 4.072,6.278 2.791,7.56 1.164,7.56 L 0,7.56 c -1.628,0 -2.908,-1.282 -2.908,-2.909 l 0,-1.2901854"
             sodipodi:nodetypes="cssssc" />
        </g>
      </g>
    </g>
    <g
       transform="matrix(1.25,0,0,-1.25,-2118.0261,814.86329)"
       id="g5097">
      <g
         id="g5099"
         clip-path="url(#clipPath5101)">
        <g
           id="g5105"
           transform="translate(914.875,785.5959)">
          <path
             d="m 0,0 c 0,-3.778 -3.063,-6.842 -6.842,-6.842 -3.779,0 -6.843,3.064 -6.843,6.842 0,3.779 3.064,6.842 6.843,6.842 C -3.063,6.842 0,3.779 0,0"
             style="fill:#466ba1;fill-opacity:1;fill-rule:nonzero;stroke:none"
             id="path5107"
             inkscape:connector-curvature="0" />
        </g>
        <g
           id="g5109"
           transform="translate(910.8174,788.3801)">
          <path
             d="M 0,0 -5.568,-5.568"
             style="fill:none;stroke:#ffffff;stroke-width:0.75;stroke-linecap:round;stroke-linejoin:round;stroke-miterlimit:10;stroke-dasharray:none;stroke-opacity:1"
             id="path5111"
             inkscape:connector-curvature="0" />
        </g>
        <g
           id="g5113"
           transform="translate(910.8174,782.8117)">
          <path
             d="M 0,0 -5.568,5.568"
             style="fill:none;stroke:#ffffff;stroke-width:0.75;stroke-linecap:round;stroke-linejoin:round;stroke-miterlimit:10;stroke-dasharray:none;stroke-opacity:1"
             id="path5115"
             inkscape:connector-curvature="0" />
        </g>
      </g>
    </g>
    <g
       transform="matrix(1.25,0,0,-1.25,-2120.5515,794.15516)"
       id="g5217">
      <g
         id="g5219"
         clip-path="url(#clipPath5221)">
        <g
           id="g5225"
           transform="translate(914.875,785.5964)">
          <path
             d="m 0,0 c 0,-3.779 -3.063,-6.842 -6.842,-6.842 -3.779,0 -6.843,3.063 -6.843,6.842 0,3.779 3.064,6.842 6.843,6.842 C -3.063,6.842 0,3.779 0,0"
             style="fill:#000000;fill-opacity:1;fill-rule:nonzero;stroke:none"
             id="path5227"
             inkscape:connector-curvature="0" />
        </g>
        <g
           id="g5229"
           transform="translate(904.8242,785.5964)">
          <path
             d="M 0,0 2.622,-2.622 6.417,2.491"
             style="fill:none;stroke:#ffffff;stroke-width:0.75;stroke-linecap:round;stroke-linejoin:round;stroke-miterlimit:10;stroke-dasharray:none;stroke-opacity:1"
             id="path5231"
             inkscape:connector-curvature="0" />
        </g>
      </g>
    </g>
  </g>
</svg>
