<?xml version="1.0" encoding="UTF-8" standalone="no"?>
<!-- Created with Inkscape (http://www.inkscape.org/) -->

<svg
   xmlns:dc="http://purl.org/dc/elements/1.1/"
   xmlns:cc="http://creativecommons.org/ns#"
   xmlns:rdf="http://www.w3.org/1999/02/22-rdf-syntax-ns#"
   xmlns:svg="http://www.w3.org/2000/svg"
   xmlns="http://www.w3.org/2000/svg"
   xmlns:sodipodi="http://sodipodi.sourceforge.net/DTD/sodipodi-0.dtd"
   xmlns:inkscape="http://www.inkscape.org/namespaces/inkscape"
   width="7.4083333mm"
   height="7.4083304mm"
   viewBox="0 0 26.25 26.24999"
   id="svg17612"
   version="1.1"
   inkscape:version="0.91 r13725"
   sodipodi:docname="twitter.svg">
  <defs
     id="defs17614" />
  <sodipodi:namedview
     id="base"
     pagecolor="#ffffff"
     bordercolor="#666666"
     borderopacity="1.0"
     inkscape:pageopacity="0.0"
     inkscape:pageshadow="2"
     inkscape:zoom="1.4"
     inkscape:cx="8.3928571"
     inkscape:cy="150.227"
     inkscape:document-units="px"
     inkscape:current-layer="layer1"
     showgrid="false"
     fit-margin-top="0"
     fit-margin-left="0"
     fit-margin-right="0"
     fit-margin-bottom="0"
     inkscape:window-width="1280"
     inkscape:window-height="778"
     inkscape:window-x="0"
     inkscape:window-y="0"
     inkscape:window-maximized="1" />
  <metadata
     id="metadata17617">
    <rdf:RDF>
      <cc:Work
         rdf:about="">
        <dc:format>image/svg+xml</dc:format>
        <dc:type
           rdf:resource="http://purl.org/dc/dcmitype/StillImage" />
        <dc:title></dc:title>
      </cc:Work>
    </rdf:RDF>
  </metadata>
  <g
     inkscape:label="Calque 1"
     inkscape:groupmode="layer"
     id="layer1"
     transform="translate(-1133.75,-976.33921)">
    <path
       d="m 1146.875,976.33921 c 7.2488,0 13.125,5.87625 13.125,13.125 0,7.25 -5.8762,13.12499 -13.125,13.12499 -7.25,0 -13.125,-5.87499 -13.125,-13.12499 0,-7.24875 5.875,-13.125 13.125,-13.125"
       style="fill:#304c6f;fill-opacity:1;fill-rule:nonzero;stroke:none"
       id="path4459"
       inkscape:connector-curvature="0" />
    <path
       d="m 1155.0806,985.18196 c -0.5737,0.2475 -1.19,0.41375 -1.8375,0.49 0.6625,-0.38625 1.1688,-0.9925 1.4063,-1.71875 -0.6175,0.35625 -1.3025,0.615 -2.0313,0.7525 -0.5837,-0.60125 -1.415,-0.97875 -2.335,-0.97875 -1.765,0 -3.1975,1.38875 -3.1975,3.1025 0,0.245 0.029,0.48125 0.084,0.70875 -2.6587,-0.13 -5.0162,-1.36625 -6.5937,-3.24375 -0.2737,0.45875 -0.4312,0.99125 -0.4312,1.56 0,1.07625 0.5637,2.0275 1.4212,2.58375 -0.5237,-0.0163 -1.0162,-0.15625 -1.45,-0.38875 l 0,0.0388 c 0,1.505 1.1038,2.75875 2.5663,3.045 -0.2675,0.07 -0.55,0.10875 -0.8425,0.10875 -0.2063,0 -0.405,-0.0187 -0.6,-0.055 0.4062,1.2325 1.5875,2.13 2.9875,2.155 -1.095,0.83375 -2.4738,1.33 -3.9725,1.33 -0.2575,0 -0.5125,-0.0163 -0.765,-0.0438 1.4175,0.88125 3.0987,1.395 4.905,1.395 5.8825,0 9.1,-4.73125 9.1,-8.83375 l -0.01,-0.40125 c 0.6237,-0.43625 1.165,-0.98375 1.5937,-1.60625"
       style="fill:#ffffff;fill-opacity:1;fill-rule:nonzero;stroke:none"
       id="path4463"
       inkscape:connector-curvature="0" />
  </g>
</svg>
